HIERARCHY
ROOT Hips
{
	OFFSET 0.00000 0.00000 0.00000
	CHANNELS 6 Xposition Yposition Zposition Zrotation Yrotation Xrotation 
	JOINT LHipJoint
	{
		OFFSET 0 0 0
		CHANNELS 3 Zrotation Yrotation Xrotation
		JOINT LeftHip
		{
			OFFSET 1.58895 -1.83665 0.71753
			CHANNELS 3 Zrotation Yrotation Xrotation
			JOINT LeftKnee
			{
				OFFSET 2.50528 -6.88321 0.00000
				CHANNELS 3 Zrotation Yrotation Xrotation
				JOINT LeftAnkle
				{
					OFFSET 2.63244 -7.23257 0.00000
					CHANNELS 3 Zrotation Yrotation Xrotation
					JOINT LeftToe
					{
						OFFSET 0.23691 -0.65090 1.72750
						CHANNELS 3 Zrotation Yrotation Xrotation
						End Site
						{
							OFFSET 0.00000 -0.00000 0.92561
						}
					}
				}
			}
		}
	}
	JOINT RHipJoint
	{
		OFFSET 0 0 0
		CHANNELS 3 Zrotation Yrotation Xrotation
		JOINT RightHip
		{
			OFFSET -1.51435 -1.83665 0.71753
			CHANNELS 3 Zrotation Yrotation Xrotation
			JOINT RightKnee
			{
				OFFSET -2.54551 -6.99375 0.00000
				CHANNELS 3 Zrotation Yrotation Xrotation
				JOINT RightAnkle
				{
					OFFSET -2.66027 -7.30903 0.00000
					CHANNELS 3 Zrotation Yrotation Xrotation
					JOINT RightToe
					{
						OFFSET -0.22981 -0.63138 2.03959
						CHANNELS 3 Zrotation Yrotation Xrotation
						End Site
						{
							OFFSET -0.00000 -0.00000 1.07060
						}
					}
				}
			}
		}
	}
	JOINT lowerback
	{
		OFFSET 0 0 0
		CHANNELS 3 Zrotation Yrotation Xrotation
		JOINT Chest
		{
			OFFSET -0.02651 1.86275 -0.11152
			CHANNELS 3 Zrotation Yrotation Xrotation
			JOINT Chest2
			{
				OFFSET 0.01019 1.86224 0.04087
				CHANNELS 3 Zrotation Yrotation Xrotation
				JOINT lowerneck
				{
					OFFSET 0 0 0
					CHANNELS 3 Zrotation Yrotation Xrotation
					JOINT Neck
					{
						OFFSET -0.01926 1.80512 0.08867
						CHANNELS 3 Zrotation Yrotation Xrotation
						JOINT Head
						{
							OFFSET 0.05516 1.76451 -0.38475
							CHANNELS 3 Zrotation Yrotation Xrotation
							End Site
							{
								OFFSET 0.01592 1.82587 -0.14001
							}
						}
					}
				}
				JOINT LeftCollar
				{
					OFFSET 0 0 0
					CHANNELS 3 Zrotation Yrotation Xrotation
					JOINT LeftShoulder
					{
						OFFSET 3.47116 1.51376 0.14491
CHANNELS 3 Zrotation Xrotation Yrotation
						JOINT LeftElbow
						{
OFFSET 0 -4.780950 0.000000
CHANNELS 3 Zrotation Xrotation Yrotation
							JOINT LeftWrist
							{
OFFSET 0 -3.586150 -0.000000
CHANNELS 3 Zrotation Xrotation Yrotation
								JOINT lhand
								{
									OFFSET 0 0 0
CHANNELS 3 Zrotation Xrotation Yrotation
									JOINT LFingers
									{
OFFSET 0 -0.659810 0.000000
CHANNELS 3 Zrotation Xrotation Yrotation
										End Site
										{
OFFSET 0 -0.531960 0.000000
										}
									}
								}
								JOINT LThumb
								{
OFFSET 0 0.000000 0.000000
CHANNELS 3 Zrotation Xrotation Yrotation
									End Site
									{
OFFSET 0 -0.540080 0.540080
									}
								}
							}
						}
					}
				}
				JOINT RightCollar
				{
					OFFSET 0 0 0
					CHANNELS 3 Zrotation Yrotation Xrotation
					JOINT RightShoulder
					{
						OFFSET -3.31725 1.61216 0.35156
CHANNELS 3 Zrotation Xrotation Yrotation
						JOINT RightElbow
						{
OFFSET 0 -4.489130 0.000000
CHANNELS 3 Zrotation Xrotation Yrotation
							JOINT RightWrist
							{
OFFSET 0 -3.705100 0.000000
CHANNELS 3 Zrotation Xrotation Yrotation
								JOINT rhand
								{
									OFFSET 0 0 0
CHANNELS 3 Zrotation Xrotation Yrotation
									JOINT RFingers
									{
OFFSET 0 -0.449140 0.000000
CHANNELS 3 Zrotation Xrotation Yrotation
										End Site
										{
OFFSET 0 -0.362110 0.000000
										}
									}
								}
								JOINT RThumb
								{
OFFSET 0 0.000000 0.000000
CHANNELS 3 Zrotation Xrotation Yrotation
									End Site
									{
OFFSET 0 -0.367630 0.367630
									}
								}
							}
						}
					}
				}
			}
		}
	}
}
MOTION
Frames: 11
Frame Time: 0.008333333333333333
-1.014728 18.804264 5.617118 -1.679337 10.833426 4.517171 0.000000 0.000000 0.000000 -9.996508 -11.063522 -8.842723 1.285006 7.183190 20.259121 0.856909 0.486712 -17.676710 8.682660 -16.599132 -54.985984 0.000000 0.000000 0.000000 17.477265 -9.509484 1.952830 0.000000 0.000000 0.000000 -1.081114 -4.272783 -21.618376 -0.017968 -0.864840 2.376925 2.828198 -0.914404 9.939160 1.366907 -0.789064 -0.713470 -0.038452 -0.457391 -6.354262 -6.843138 -5.247781 -18.503782 6.824509 -6.633964 15.023048 2.564082 -2.867344 8.161050 0.000000 0.000000 0.000000 -7.669584 -41.425223 -70.977586 63.291641 -57.123784 37.093415 24.122446 -47.488043 11.202869 0.000000 0.000000 0.000000 -7.125000 0.000000 0.000000 -2.100879 17.740916 -1.361703 0.000000 0.000000 0.000000 -43.758231 -28.887971 43.135167 -80.069095 -59.612574 -51.411266 -0.955378 -25.019768 44.867239 0.000000 0.000000 0.000000 7.125000 0.000000 0.000000 52.368693 67.882450 -32.028747
-1.012429 18.802966 5.622760 -1.713937 10.627831 4.455202 0.000000 0.000000 0.000000 -9.984002 -10.858937 -8.745104 1.279869 7.169453 20.218406 0.858285 0.497677 -17.695288 8.682185 -16.598769 -54.984461 0.000000 0.000000 0.000000 17.488218 -9.329114 2.069673 0.000000 0.000000 0.000000 -1.082872 -4.320311 -21.660992 -0.014974 -0.789982 2.171140 2.764150 -0.983850 9.913000 1.340610 -0.891763 -0.725864 -0.014495 -0.506216 -6.354181 -6.658478 -5.102982 -18.512743 6.834279 -6.493957 15.143442 2.556419 -2.788218 8.186921 0.000000 0.000000 0.000000 -6.582140 -40.997263 -70.635961 65.199720 -57.540367 38.700070 24.359286 -47.604622 11.197378 0.000000 0.000000 0.000000 -7.125000 0.000000 0.000000 -1.934524 17.724075 -1.254471 0.000000 0.000000 0.000000 -45.056491 -27.724028 43.421172 -86.404688 -59.930638 -56.887465 0.653296 -27.911005 44.851592 0.000000 0.000000 0.000000 7.125000 0.000000 0.000000 53.747990 67.366203 -32.478242
-1.012418 18.802153 5.626938 -1.716034 10.356856 4.425133 0.000000 0.000000 0.000000 -9.992287 -10.649537 -8.671829 1.274382 7.154611 20.174195 0.864251 0.509288 -17.760239 8.680629 -16.597773 -54.979012 0.000000 0.000000 0.000000 17.469036 -9.079262 2.174680 0.000000 0.000000 0.000000 -1.089803 -4.318832 -21.720575 -0.015471 -0.802383 2.205179 2.645537 -1.039920 9.857611 1.315675 -0.984389 -0.733647 0.039188 -0.548025 -6.331186 -6.427594 -4.958909 -18.524739 6.768079 -6.351988 15.258761 2.515857 -2.712947 8.207354 0.000000 0.000000 0.000000 -5.429684 -40.579324 -70.268661 67.228626 -57.943810 40.415931 24.619350 -47.759774 11.265825 0.000000 0.000000 0.000000 -7.125000 0.000000 0.000000 -1.755814 17.624035 -1.142281 0.000000 0.000000 0.000000 -46.245186 -26.935668 43.505992 -92.184516 -59.964147 -61.891463 1.912272 -30.961821 44.565277 0.000000 0.000000 0.000000 7.125000 0.000000 0.000000 54.300183 66.804018 -32.251730
-1.013405 18.801308 5.630621 -1.675611 10.018355 4.420301 0.000000 0.000000 0.000000 -10.045958 -10.563800 -8.542927 1.268030 7.137301 20.122909 0.880129 0.605778 -17.957785 8.661534 -16.584912 -54.912002 0.000000 0.000000 0.000000 17.405229 -8.759578 2.273241 0.000000 0.000000 0.000000 -1.092984 -4.333712 -21.756873 -0.015959 -0.816456 2.243792 2.477061 -1.088067 9.777965 1.292061 -1.072940 -0.747123 0.121248 -0.586176 -6.298994 -6.249636 -4.799242 -18.524374 6.714895 -6.178643 15.395390 2.492542 -2.624650 8.233163 0.000000 0.000000 0.000000 -4.201261 -40.058487 -69.817618 69.543552 -58.356170 42.382189 24.815395 -47.875747 11.275165 0.000000 0.000000 0.000000 -7.125000 0.000000 0.000000 -1.619007 17.594563 -1.054301 0.000000 0.000000 0.000000 -47.350513 -26.472217 43.482039 -97.512376 -59.777701 -66.500754 2.623680 -33.586217 44.585708 0.000000 0.000000 0.000000 7.125000 0.000000 0.000000 54.951796 66.596624 -32.495396
-1.013299 18.800455 5.633491 -1.703533 9.649237 4.418059 0.000000 0.000000 0.000000 -10.025569 -10.351094 -8.466613 1.260530 7.117114 20.062697 0.884612 0.687120 -18.034309 8.689237 -16.603499 -55.008941 0.000000 0.000000 0.000000 17.415299 -8.395891 2.353257 0.000000 0.000000 0.000000 -1.095168 -4.357067 -21.789394 -0.018647 -0.881076 2.421614 2.414965 -1.136258 9.703005 1.280288 -1.147446 -0.776306 0.154064 -0.621062 -6.287540 -6.066974 -4.608516 -18.539987 6.690466 -5.972182 15.587799 2.482600 -2.516554 8.279638 0.000000 0.000000 0.000000 -2.871863 -39.406077 -69.277753 72.230609 -58.770372 44.674998 24.966610 -47.968261 11.083840 0.000000 0.000000 0.000000 -7.125000 0.000000 0.000000 -1.502421 17.788585 -0.971981 0.000000 0.000000 0.000000 -48.247917 -26.321832 43.293471 -102.010442 -59.444377 -70.381682 2.876347 -35.504660 44.784836 0.000000 0.000000 0.000000 7.125000 0.000000 0.000000 55.539758 66.635608 -32.976566
-1.010803 18.799885 5.636590 -1.731713 9.261870 4.434313 0.000000 0.000000 0.000000 -10.003725 -9.975465 -8.484241 1.256082 7.104962 20.026757 0.886182 0.641174 -18.032431 8.709764 -16.617266 -55.080819 0.000000 0.000000 0.000000 17.420703 -8.009585 2.422638 0.000000 0.000000 0.000000 -1.096141 -4.382288 -21.812312 -0.021472 -0.946815 2.602487 2.431507 -1.177550 9.603608 1.254953 -1.205252 -0.801128 0.125158 -0.650527 -6.259288 -5.893044 -4.412071 -18.579831 6.683442 -5.754792 15.730005 2.480949 -2.401881 8.314105 0.000000 0.000000 0.000000 -1.495246 -38.753873 -68.743697 75.079467 -59.136838 47.116314 25.271752 -48.376517 11.009276 0.000000 0.000000 0.000000 -7.125000 0.000000 0.000000 -1.284231 17.839995 -0.829168 0.000000 0.000000 0.000000 -48.900071 -26.389742 42.830544 -105.469626 -59.070546 -73.354797 2.871024 -36.709420 44.621203 0.000000 0.000000 0.000000 7.125000 0.000000 0.000000 55.230657 66.541629 -32.637823
-1.007927 18.799015 5.638727 -1.758198 8.876525 4.421180 0.000000 0.000000 0.000000 -9.998852 -9.659136 -8.455209 1.253224 7.097258 20.003895 0.890248 0.673355 -18.085741 8.715851 -16.621388 -55.102121 0.000000 0.000000 0.000000 17.415827 -7.632352 2.516481 0.000000 0.000000 0.000000 -1.094106 -4.425577 -21.819664 -0.020933 -0.933701 2.566443 2.457517 -1.215695 9.528327 1.223037 -1.257492 -0.815651 0.083553 -0.677641 -6.234179 -5.705281 -4.235037 -18.602492 6.644560 -5.560452 15.838331 2.463213 -2.301197 8.334641 0.000000 0.000000 0.000000 -0.225354 -38.126552 -68.261655 77.826832 -59.428132 49.478271 25.716914 -48.889975 11.024579 0.000000 0.000000 0.000000 -7.125000 0.000000 0.000000 -0.972762 17.778756 -0.629330 0.000000 0.000000 0.000000 -49.343259 -26.682860 42.154070 -108.090948 -58.723046 -75.599695 2.734671 -37.604020 44.493041 0.000000 0.000000 0.000000 7.125000 0.000000 0.000000 54.876320 66.507941 -32.337285
-1.005394 18.797847 5.639200 -1.794936 8.480567 4.396088 0.000000 0.000000 0.000000 -9.999498 -9.530346 -8.334456 1.248873 7.085372 19.968657 0.899522 0.887474 -18.262878 8.705936 -16.614734 -55.067605 0.000000 0.000000 0.000000 17.418323 -7.241750 2.609808 0.000000 0.000000 0.000000 -1.089788 -4.470341 -21.807871 -0.020073 -0.914598 2.513828 2.487933 -1.235731 9.500910 1.199218 -1.283022 -0.824224 0.044854 -0.691742 -6.229412 -5.538559 -4.106686 -18.663470 6.614257 -5.428248 15.963920 2.443192 -2.229225 8.373096 0.000000 0.000000 0.000000 0.899268 -37.546274 -67.857590 80.419862 -59.648209 51.713308 26.214572 -49.351611 11.054659 0.000000 0.000000 0.000000 -7.125000 0.000000 0.000000 -0.625723 17.694699 -0.405855 0.000000 0.000000 0.000000 -49.541339 -27.173395 41.353102 -109.703900 -58.480355 -76.976930 2.300942 -37.971860 43.922673 0.000000 0.000000 0.000000 7.125000 0.000000 0.000000 53.461725 66.297963 -31.065979
-1.002689 18.797450 5.637540 -1.763273 8.038933 4.371126 0.000000 0.000000 0.000000 -10.089746 -9.463781 -8.166572 1.243369 7.070348 19.923903 0.913703 1.166362 -18.517116 8.687457 -16.602268 -55.002721 0.000000 0.000000 0.000000 17.340116 -6.812335 2.718266 0.000000 0.000000 0.000000 -1.082989 -4.533927 -21.784856 -0.018200 -0.871592 2.395537 2.493247 -1.221947 9.458822 1.149860 -1.268897 -0.820730 -0.012884 -0.685749 -6.202796 -5.362830 -3.984530 -18.696849 6.542583 -5.298158 16.058404 2.407512 -2.162710 8.395202 0.000000 0.000000 0.000000 1.926361 -36.949551 -67.496077 82.903386 -59.807734 53.858176 26.481457 -49.774231 11.079252 0.000000 0.000000 0.000000 -7.125000 0.000000 0.000000 -0.440265 17.639927 -0.286147 0.000000 0.000000 0.000000 -49.411836 -27.879998 40.539193 -109.834279 -58.459784 -77.088131 1.630272 -37.872224 43.108040 0.000000 0.000000 0.000000 7.125000 0.000000 0.000000 51.428855 65.995119 -29.279916
-0.998962 18.798004 5.633742 -1.732688 7.612869 4.334764 0.000000 0.000000 0.000000 -10.192061 -9.501161 -7.941914 1.236378 7.051223 19.867209 0.936049 1.505428 -18.880181 8.663391 -16.586159 -54.918668 0.000000 0.000000 0.000000 17.256813 -6.401267 2.835319 0.000000 0.000000 0.000000 -1.073990 -4.599269 -21.744140 -0.014247 -0.766006 2.105222 2.561408 -1.199145 9.412225 1.078958 -1.236663 -0.826897 -0.131076 -0.673479 -6.185297 -5.137125 -3.832448 -18.655271 6.437359 -5.136240 16.136814 2.357202 -2.083212 8.394752 0.000000 0.000000 0.000000 2.707429 -36.374786 -67.207846 85.028845 -59.904398 55.696274 26.604492 -49.984803 11.138698 0.000000 0.000000 0.000000 -7.125000 0.000000 0.000000 -0.358170 17.560908 -0.233285 0.000000 0.000000 0.000000 -48.826637 -28.598322 39.725758 -108.531004 -58.659876 -75.975919 1.056391 -37.139095 42.227010 0.000000 0.000000 0.000000 7.125000 0.000000 0.000000 49.417621 65.597576 -27.460096
-0.996071 18.798319 5.627791 -1.741738 7.191870 4.295386 0.000000 0.000000 0.000000 -10.248958 -9.548062 -7.720309 1.228515 7.029518 19.802830 0.955184 1.881874 -19.232686 8.632551 -16.565395 -54.810492 0.000000 0.000000 0.000000 17.224862 -5.985876 2.933335 0.000000 0.000000 0.000000 -1.053160 -4.745507 -21.647339 -0.005743 -0.463640 1.273947 2.645448 -1.153022 9.382015 1.007475 -1.171031 -0.836977 -0.263180 -0.645389 -6.180638 -4.902368 -3.691823 -18.541422 6.395898 -5.004911 16.150050 2.323221 -2.012899 8.363830 0.000000 0.000000 0.000000 3.295206 -35.887623 -67.043381 86.848908 -59.960685 57.271479 26.961381 -50.205916 11.272567 0.000000 0.000000 0.000000 -7.125000 0.000000 0.000000 -0.117752 17.374167 -0.077098 0.000000 0.000000 0.000000 -48.211841 -29.385987 38.958313 -106.447274 -58.948730 -74.193117 0.283138 -35.701958 41.784325 0.000000 0.000000 0.000000 7.125000 0.000000 0.000000 47.973126 65.532362 -26.416717
